<svg xmlns="http://www.w3.org/2000/svg" xmlns:xlink="http://www.w3.org/1999/xlink" width="15" height="15"><g opacity="0.54"><path d="M4.71406e-05 -1.66661Q2.9167 -4.5833 5.83334 -7.5Q6.66667 -6.66667 7.5 -5.83333Q4.58335 -2.91664 1.6667 4.71406e-05Q4.58335 2.9167 7.5 5.83334Q6.66667 6.66667 5.83334 7.5Q2.9167 4.58335 4.71406e-05 1.6667Q-2.91664 4.58335 -5.83333 7.5Q-6.66667 6.66667 -7.5 5.83334Q-4.5833 2.9167 -1.66661 4.71406e-05Q-4.5833 -2.91664 -7.5 -5.83333Q-6.66667 -6.66667 -5.83333 -7.5Q-2.91664 -4.5833 4.71406e-05 -1.66661Q4.71406e-05 -1.66661 4.71406e-05 -1.66661Q4.71406e-05 -1.66661 4.71406e-05 -1.66661Z" style="mix-blend-mode:normal" fill-rule="evenodd" fill="#ffffff" transform="translate(7.5, 7.5)"></path></g></svg>